<?xml version="1.0" ?><!DOCTYPE svg  PUBLIC '-//W3C//DTD SVG 1.1//EN'  'http://www.w3.org/Graphics/SVG/1.1/DTD/svg11.dtd'><svg fill="#fff" enable-background="new 0 0 512 512" height="512px" id="Layer_3" version="1.1" viewBox="0 0 512 512" width="512px" xml:space="preserve" xmlns="http://www.w3.org/2000/svg" xmlns:xlink="http://www.w3.org/1999/xlink"><path d="M154.449,197.961c0,0-6.925-15.076-32.7-15.076c0,0-5.562-1.068-30.385,8.14c0,0-2.306,0.267-5.426,0.267  c-3.12,0-16.278-7.874-29.708-7.874s-46.287,9.138-46.287,58.777c0,49.64,38.274,82.046,47.414,82.046  c9.139,0,24.753-7.866,31.799-7.866c7.045,0,26.658,7.492,32.942,7.492c6.283,0,27.193-14.128,41.285-53.84  c0,0-29.102-5.165-29.102-33.639C134.282,236.389,132.295,210.856,154.449,197.961z"/><path d="M76.977,171.438c0,0,36.583,2.228,41.591-36.045C118.568,135.392,77.538,138.688,76.977,171.438z"/><g><path d="M196.375,214.86c0,4.197-3.22,7.692-8.35,7.692c-4.89,0-8.11-3.495-8.11-7.692c0-4.427,3.34-7.807,8.23-7.807   C193.155,207.053,196.256,210.433,196.375,214.86z M180.75,288.466V230.71h14.671v57.755H180.75z"/><path d="M227.267,218.922h-22.901v-12.004h60.711v12.004h-23.14v69.543h-14.67V218.922z"/><path d="M319.939,270.994c0,6.759,0.239,12.353,0.477,17.013h-12.762l-0.715-8.506h-0.358c-2.505,3.962-8.229,9.79-18.726,9.79   c-10.497,0-20.158-6.178-20.158-24.708v-33.332h14.671v30.885c0,9.439,3.102,15.502,10.854,15.502   c5.964,0,9.779-3.965,11.211-7.693c0.597-1.167,0.836-2.797,0.836-4.43v-34.264h14.67V270.994z"/><path d="M335.8,248.111c0-6.526-0.239-12.005-0.478-16.901h12.763l0.718,8.509h0.356c2.625-4.427,8.945-9.788,18.606-9.788   c10.137,0,20.632,6.408,20.632,24.354v33.681h-14.67V255.92c0-8.158-3.1-14.335-11.092-14.335c-5.844,0-9.9,4.077-11.449,8.388   c-0.478,1.17-0.717,2.915-0.717,4.548v33.445H335.8V248.111z"/><path d="M414.397,262.529c0.357,10.255,8.467,14.682,17.894,14.682c6.794,0,11.567-1.048,16.098-2.563l2.15,9.788   c-5.008,2.099-11.931,3.615-20.275,3.615c-18.849,0-29.938-11.308-29.938-28.672c0-15.732,9.78-30.531,28.384-30.531   c18.849,0,25.049,15.149,25.049,27.618c0,2.681-0.236,4.779-0.478,6.063H414.397z M439.922,252.506   c0.119-5.245-2.264-13.87-12.045-13.87c-9.067,0-12.88,8.043-13.479,13.87H439.922z"/><path d="M464.966,273.6c3.222,1.98,9.54,4.193,14.79,4.193c6.44,0,9.304-2.679,9.304-6.408c0-3.846-2.386-5.711-9.54-8.273   c-11.332-3.731-15.986-9.792-15.986-16.55c0-10.021,8.469-17.713,21.95-17.713c6.439,0,12.044,1.514,15.503,3.379l-2.982,10.021   c-2.387-1.399-7.153-3.262-12.285-3.262c-5.245,0-8.108,2.562-8.108,6.058c0,3.614,2.74,5.245,10.136,7.928   c10.617,3.61,15.391,8.854,15.508,17.246c0,10.372-8.23,17.833-23.617,17.833c-7.035,0-13.357-1.635-17.653-3.964L464.966,273.6z"/></g></svg>
